# xmcd
#
# Track frame offsets:
#	150
#	15796
#	38156
#	53597
#	66915
#	87342
#	99120
#	110456
#	125549
#	144192
#	160420
#	175549
#	193849
#	207374
#	224915
#	240044
#	256272
#	271365
#
# Disc length: 3824 seconds
#
# Revision: 1
# Processed by: cddbd v1.5PL3 Copyright (c) Steve Scherf et al.
# Submitted via: audiograbber 1.81.03
#
DISCID=ef0eee12
DTITLE=Clapton, Eric - Me and Mr. Johnson
DYEAR=2004
DGENRE=Blues
TTITLE0=When You Got a Good Friend
TTITLE1=Little Queen of Spades
TTITLE2=They're Red Hot
TTITLE3=Me and the Devil Blues
TTITLE4=Traveling Riverside Blues
TTITLE5=Last Fair Deal Gone Down
TTITLE6=Stop Breakin' Down Blues
TTITLE7=Milkcow's Calf Blues
TTITLE8=Kind Hearted Woman Blues
TTITLE9=Come On in My Kitchen
TTITLE10=If I Had Possession Over Judgement Day
TTITLE11=Love In Vain
TTITLE12=32-20 Blues
TTITLE13=Hell Hound on My Trail
TTITLE14=When You Got a Good Friend
TTITLE15=Come On in My Kitchen
TTITLE16=Milkcow's Calf Blues
TTITLE17=If I Had Possession Over Judgement Day
EXTD=
EXTT0=
EXTT1=
EXTT2=
EXTT3=
EXTT4=
EXTT5=
EXTT6=
EXTT7=
EXTT8=
EXTT9=
EXTT10=
EXTT11=
EXTT12=
EXTT13=
EXTT14=
EXTT15=
EXTT16=
EXTT17=
PLAYORDER=
